# xmcd
#
# Track frame offsets:
#   150
#   18155
#   33677
#   52732
#   69802
#   84202
#   101525
#   120835
#   136347
#   154040
#   171020
#   189385
#   206095
#
# Disc length: 2944 seconds
#
# Revision: 0
# Processed by: cddbd v1.5.2PL0 Copyright (c) Steve Scherf et al.
# Submitted via: uFREEDB ActiveX Control 1.5
#
DISCID=950b7e0d
DTITLE=FOGO DE CHAO - TCHAU AMOR
DYEAR=1900
DGENRE=Country
TTITLE0=TCHAU AMOR
TTITLE1=GIGANTE DO LA;O
TTITLE2=ESTOURO DE TROPA
TTITLE3=VAI SAUDADE
TTITLE4=BEM DO MEU JEITO
TTITLE5=TROPEIRO VELHO
TTITLE6=FUSCAO PRETO
TTITLE7=SPC SO POTRA E CERVEJA
TTITLE8=CHEGA MAIS
TTITLE9=CARGA PESADA
TTITLE10=PRA VOCE VOLTAR
TTITLE11=CATARINA
TTITLE12=MORENA DO PARANA
EXTD=
EXTT0=
EXTT1=
EXTT2=
EXTT3=
EXTT4=
EXTT5=
EXTT6=
EXTT7=
EXTT8=
EXTT9=
EXTT10=
EXTT11=
EXTT12=
PLAYORDER=
